<svg width="43" height="43" viewBox="0 0 43 43" xmlns="http://www.w3.org/2000/svg">
    <g stroke="#FFF" stroke-width="2" fill="none" fill-rule="evenodd" stroke-linecap="round">
        <path d="M4.365 41.462c1.504-3.018 2.256-6.036 2.256-9.053 0-3.018-.752-5.973-2.256-8.867M38.495 41.462c-1.504-3.018-2.256-6.036-2.256-9.053 0-3.018.752-5.973 2.256-8.867"/>
        <path d="M2.058 39.162C-.61 32.42 4.302 20.633 8.884 17.751c1.558-.98 5.858-1.345 12.898-1.092 6.713.023 10.919.554 12.617 1.591 5.202 3.178 9.036 18.063 5.553 22.147-3.483 4.084-10.925-4.862-12.002-5.394-1.076-.531-12.749-.849-13.924-.222-1.174.627-9.298 11.123-11.968 4.381zM13.45 22.48v6.483M10.196 25.722h6.51M29.077 22.48v1.297M29.077 28.315v1.296M31.68 25.98h1.303M25.17 25.981h1.302M18.009 12.581c1.067-.876 2.134-1.314 3.2-1.314 1.068 0 2.135.438 3.202 1.314M14.462 9.172c2.248-1.838 4.496-2.757 6.744-2.757 2.248 0 4.496.92 6.744 2.757M10.963 5.638c3.393-2.784 6.786-4.176 10.18-4.176 3.392 0 6.785 1.392 10.178 4.176"/>
    </g>
</svg>
