<svg width="22" height="22" viewBox="0 0 22 22" xmlns="http://www.w3.org/2000/svg">
    <g fill="none" fill-rule="evenodd">
        <path d="M0 0h22v22H0z"/>
        <path d="M11 4.152a5.498 5.498 0 0 1 7.556.209 5.5 5.5 0 0 1 .216 7.55L11 19.694 3.228 11.91A5.5 5.5 0 0 1 11 4.151zm6.258 1.504a3.665 3.665 0 0 0-5.032-.14l-1.224 1.098-1.225-1.098a3.666 3.666 0 0 0-5.036.142 3.666 3.666 0 0 0-.176 4.996L11 17.1l6.435-6.444a3.667 3.667 0 0 0-.177-5z" fill="#FFF" fill-rule="nonzero"/>
    </g>
</svg>
