<svg width="50" height="50" viewBox="0 0 50 50" xmlns="http://www.w3.org/2000/svg">
    <g transform="rotate(45 14.65 42.592)" stroke="#FFF" stroke-width="2" fill="none" fill-rule="evenodd" stroke-linecap="round">
        <path d="M6.53 41.144v-1.179h6.13v1.18"/>
        <path d="M7.734 20.202c-1.969.597-4.563 1.943-5.435 3.958-1.32 3.051.88 4.974.575 7.622-.158 1.365-3.84 4.748-2.63 8.39 1.208 3.642 4.12 5.982 9.351 5.982 5.231 0 8.411-2.506 9.447-6.189 1.036-3.682-2.658-6.617-2.774-8.049-.254-3.126 1.89-5.068.724-7.756-.88-2.03-3.506-3.383-5.509-3.973"/>
        <ellipse cx="9.61" cy="28.36" rx="3.417" ry="3.309"/>
        <path d="m7.708 25.604.364-19.91m3.144.063.373 19.901M7.17 0h4.88v4.718a.954.954 0 0 1-.954.954H8.123a.954.954 0 0 1-.954-.954V0h0z"/>
    </g>
</svg>
